<svg xmlns="http://www.w3.org/2000/svg" viewBox="0 0 1254 1254" role="img" aria-labelledby="janus-title janus-desc">
  <title id="janus-title">Janus</title>
  <desc id="janus-desc">Two opposing profiles share a teal and gold circular form.</desc>
  <g transform="translate(0 1254) scale(.1 -.1)" shape-rendering="geometricPrecision">
    <path fill="#0E6F6C" d="M5970 11459c-1117-75-2191-521-3015-1250-389-344-743-770-1011-1216-365-607-599-1289-693-2015-31-237-41-400-41-677 0-487 46-877 156-1316 359-1434 1366-2643 2754-3308 607-291 1260-458 1922-493l138-7-41 74c-118 213-215 511-270 824-37 211-51 397-59 775-8 400-12 434-59 481-39 39-107 56-351 89-339 47-458 76-593 147-197 104-278 277-236 509 5 32 29 127 52 209 34 126 41 165 42 245 0 114-16 150-119 273-84 99-100 130-100 192 0 66 32 127 100 190l54 50-61 45c-86 63-136 123-155 186-18 65-14 93 38 239 47 132 60 231 34 270-23 36-92 67-237 108-258 73-358 128-400 222-52 113-10 196 358 707 175 244 263 386 378 611 93 183 131 290 121 340-4 18-26 79-51 137-54 129-72 196-81 303-16 199 54 549 166 837 90 230 270 559 451 826 151 223 586 787 954 1239 66 81 122 151 123 156 4 10-90 10-268-2Z"/>
    <path fill="#D69B31" d="M6306 11459c6-8 78-97 160-199 578-715 889-1135 1097-1482 86-142 220-405 265-518 138-349 202-740 157-955-16-76-19-84-77-223-27-64-39-109-40-142 0-62 48-181 149-365 142-259 226-391 482-750 94-132 190-276 212-320 37-72 40-85 36-134-14-134-117-205-419-287-133-36-213-69-237-98-31-37-25-95 28-258 28-87 51-173 51-192 0-85-51-164-160-247l-69-53 59-55c59-56 99-125 100-171 0-56-24-105-101-200-146-181-156-241-84-505 60-223 72-303 56-396-30-183-146-308-354-381-105-38-214-61-471-103-234-38-300-55-340-86-62-49-66-76-76-524-5-252-14-438-25-525-48-390-132-696-268-970-34-69-64-129-66-134-2-5 49-6 125-2 694 38 1330 204 1959 511 708 346 1306 824 1793 1433 350 438 648 991 824 1526 62 191 144 525 177 725 222 1323-36 2636-732 3736-195 307-414 580-682 850-569 573-1246 994-2010 1250-450 151-892 232-1369 252-138 5-159 4-150-8Z"/>
  </g>
</svg>
